<?xml version="1.0" standalone="no"?>
<!DOCTYPE svg PUBLIC "-//W3C//DTD SVG 20010904//EN"
 "http://www.w3.org/TR/2001/REC-SVG-20010904/DTD/svg10.dtd">
<svg version="1.0" xmlns="http://www.w3.org/2000/svg"
 width="512.000000pt" height="512.000000pt" viewBox="0 0 512.000000 512.000000"
 preserveAspectRatio="xMidYMid meet">

<g transform="translate(0.000000,512.000000) scale(0.100000,-0.100000)"
fill="#000000" stroke="none">
<path d="M2325 4699 c-663 -80 -1234 -440 -1589 -1001 l-49 -78 -344 0 -343 0
0 -1060 0 -1060 343 0 344 0 49 -77 c289 -458 727 -788 1239 -932 214 -60 325
-74 580 -75 254 -1 379 15 590 74 508 143 951 476 1239 933 l49 77 344 0 343
0 0 1060 0 1060 -343 0 -344 0 -49 78 c-334 528 -851 874 -1469 983 -138 24
-458 34 -590 18z m-179 -376 c-131 -173 -316 -496 -378 -660 l-16 -43 -352 0
c-213 0 -350 4 -348 9 10 30 145 185 233 269 165 157 363 288 561 369 85 35
294 101 322 103 8 0 -1 -20 -22 -47z m915 18 c291 -82 552 -231 774 -443 88
-84 223 -239 233 -269 2 -5 -135 -9 -348 -9 l-352 0 -16 43 c-60 160 -249 490
-378 660 -20 26 -32 47 -27 47 5 0 56 -13 114 -29z m-430 -73 c87 -101 188
-240 252 -344 49 -80 157 -286 157 -299 0 -3 -216 -5 -480 -5 -264 0 -480 2
-480 5 0 13 108 219 157 299 88 145 298 416 323 416 4 0 36 -33 71 -72z m2189
-1708 l0 -760 -2260 0 -2260 0 0 760 0 760 2260 0 2260 0 0 -760z m-3052
-1102 c29 -76 142 -300 199 -397 31 -51 91 -141 134 -200 42 -58 75 -108 74
-110 -2 -2 -54 11 -115 29 -299 85 -552 229 -775 442 -88 84 -223 239 -233
269 -2 5 135 9 348 9 l352 0 16 -42z m1272 37 c0 -13 -108 -219 -157 -300 -63
-103 -198 -284 -272 -365 l-51 -55 -51 55 c-74 81 -209 262 -272 365 -49 81
-157 287 -157 300 0 3 216 5 480 5 264 0 480 -2 480 -5z m1028 -4 c-10 -30
-145 -185 -233 -269 -223 -213 -483 -361 -778 -444 -60 -16 -110 -28 -112 -26
-2 1 28 46 67 98 119 163 278 446 340 608 l16 42 352 0 c213 0 350 -4 348 -9z"/>
<path d="M2496 3071 c-44 -9 -81 -22 -83 -28 -3 -7 37 -222 87 -478 l92 -465
94 0 c79 0 95 3 102 18 5 9 42 133 83 275 40 142 76 252 78 245 2 -7 39 -130
80 -273 l76 -260 97 -3 96 -3 11 53 c6 29 49 243 94 476 82 413 83 423 63 427
-98 23 -171 34 -176 28 -4 -5 -29 -119 -56 -255 -27 -136 -51 -242 -55 -235
-4 6 -28 86 -53 177 -26 91 -56 195 -68 233 l-20 67 -92 0 -93 0 -56 -192
c-31 -106 -62 -214 -69 -240 -6 -27 -15 -48 -18 -48 -3 0 -28 113 -55 250 -39
199 -52 250 -65 249 -8 -1 -51 -9 -94 -18z"/>
<path d="M930 2590 l0 -490 100 0 100 0 2 287 3 287 175 -280 176 -279 97 -3
97 -3 0 486 0 485 -100 0 -100 0 -2 -281 -3 -282 -175 279 -176 279 -97 3 -97
3 0 -491z"/>
<path d="M1805 3068 c-3 -7 -4 -227 -3 -488 l3 -475 263 -3 262 -2 0 105 0
105 -160 0 -160 0 0 90 0 90 150 0 150 0 0 100 0 100 -150 0 -150 0 0 90 0 90
160 0 160 0 0 105 0 105 -260 0 c-199 0 -262 -3 -265 -12z"/>
<path d="M3725 3060 c-201 -64 -265 -304 -119 -441 28 -26 80 -53 183 -95 162
-65 194 -86 194 -129 0 -37 -49 -81 -99 -91 -51 -9 -135 12 -184 47 l-41 30
-57 -49 c-101 -88 -100 -84 -50 -126 88 -76 201 -111 329 -104 259 15 399 284
243 467 -45 52 -92 80 -233 135 -137 54 -161 69 -161 101 0 65 125 88 220 40
l49 -25 63 77 c35 41 63 78 63 81 0 12 -125 72 -180 86 -78 21 -146 19 -220
-4z"/>
</g>
</svg>
